<?xml version="1.0" standalone="no"?>
<!DOCTYPE svg PUBLIC "-//W3C//DTD SVG 20010904//EN"
 "http://www.w3.org/TR/2001/REC-SVG-20010904/DTD/svg10.dtd">
<svg version="1.0" xmlns="http://www.w3.org/2000/svg"
 width="225.000000pt" height="225.000000pt" viewBox="0 0 225.000000 225.000000"
 preserveAspectRatio="xMidYMid meet">

<g transform="translate(0.000000,225.000000) scale(0.100000,-0.100000)"
fill="#000000" stroke="none">
<path d="M350 1306 l0 -573 63 -7 c209 -22 450 -139 604 -293 l63 -63 0 548 0
548 -55 67 c-105 127 -253 232 -405 287 -85 32 -202 60 -246 60 l-24 0 0 -574z"/>
<path d="M1815 1873 c-99 -22 -182 -47 -238 -72 -140 -63 -275 -168 -363 -282
l-44 -57 0 -548 0 -547 78 75 c92 88 176 147 275 193 90 43 221 81 310 90 l67
7 0 574 0 574 -32 -1 c-18 -1 -42 -3 -53 -6z"/>
<path d="M193 1609 l-33 -10 0 -589 c0 -325 3 -590 8 -590 4 1 34 7 67 16 84
21 320 29 427 15 49 -6 132 -25 185 -41 l98 -28 -40 35 c-60 53 -166 120 -242
152 -90 38 -168 58 -282 71 -52 6 -101 16 -108 22 -10 8 -13 102 -13 468 0
252 -3 465 -6 474 -7 18 -14 18 -61 5z"/>
<path d="M1990 1146 l0 -475 -22 -15 c-14 -10 -44 -16 -78 -16 -132 -1 -326
-68 -456 -158 -77 -54 -136 -106 -109 -97 95 31 201 57 278 66 111 14 328 6
412 -15 33 -9 63 -15 68 -16 4 0 7 265 7 588 l0 589 -39 11 c-21 7 -43 12 -50
12 -8 0 -11 -127 -11 -474z"/>
</g>
</svg>
